@startuml
title 基于GitHub的实验管理平台--类图
class users {
    <b>user_id</b> （用户ID）
    name （用户真实姓名）
    github_username （用户GitHub账号）
    update_date （用户GitHub账号修改日期）
    password （用户密码）
    disable （用户是否禁用）
}
class teachers{
    <b>teacher_id</b> （老师工号）
    department_id （老师所属部门）
    user_id （老师用户io）
    teacher_name （老师名称）
    teacher_course_id （老师所选的课程）
}
class students{
    <b>student_id</b> （学号）
    class_id （班级编号）
    major_id （专业编号）
    term_id （该学期编号）
    result_sum（成绩汇总）
    web_sum （网站正确与否汇总）
    user_id （用户编号）
}
class userclass{
   <b>class_id</b> （班级编号）
   class_name （班级名称）
}
users <|- students
users <|-- teachers
class grades {
    <b>student_id</b> （学号）
    <b>test_id</b> （实验编号）
    result （分数）
    memo （评价）
    update_date （评改日期）
}

class tests {
    <b>test_id</b> （实验编号）
    title （实验名称）
}

class course {
   <b>course_id</b> （课程编号）
    course_name （课程名称）
}
class major {
   <b>major_id</b> （专业编号）
    major_name （专业名称）
}

class term {
   <b>term_id</b> （学期编号）
    term_name （学期名称）
    start_time （开始时间）
    end_time （结束时间）
}
class termInformation{
    <b>major_id</b> （专业编号）
    term_id （学期编号）
    term_course_id （该学期课程编号）
    teacher_id （该课程老师编号）
    class_id （学生班级id）
}
class department{
 <b>department_id</b> （部门id）
 department_name （部门id）
}

class testStandard{
    <b>test_id</b> （实验id）
    standard_info （标准信息）
    standard_proportion （标准占比）
}

students "1" -- "n"  grades
testStandard "n" -- "1"  grades
students "n" --"1" major
teachers "1" --"n" tests
major "1" -- "1" termInformation
course "n" -- "1" termInformation
term "1" -- "1" termInformation
teachers "n" -- "1" termInformation
tests "n" -- "1" students
department "1" -- "n" teachers
tests "1" --"1" testStandard
userclass "1" -- "1" students
@enduml